<?xml version="1.0" encoding="UTF-8" standalone="no"?>
<svg
   viewBox="0 0 65.870003 75.999672"
   width="65.870003"
   height="75.999672"
   preserveAspectRatio="xMidYMid slice"
   version="1.1"
   id="svg50"
   sodipodi:docname="logo.svg"
   inkscape:version="1.2.1 (9c6d41e, 2022-07-14)"
   xmlns:inkscape="http://www.inkscape.org/namespaces/inkscape"
   xmlns:sodipodi="http://sodipodi.sourceforge.net/DTD/sodipodi-0.dtd"
   xmlns="http://www.w3.org/2000/svg"
   xmlns:svg="http://www.w3.org/2000/svg">
  <sodipodi:namedview
     id="namedview52"
     pagecolor="#ffffff"
     bordercolor="#000000"
     borderopacity="0.25"
     inkscape:showpageshadow="2"
     inkscape:pageopacity="0.0"
     inkscape:pagecheckerboard="0"
     inkscape:deskcolor="#d1d1d1"
     showgrid="false"
     inkscape:zoom="3.1052632"
     inkscape:cx="111.26271"
     inkscape:cy="38"
     inkscape:window-width="1440"
     inkscape:window-height="752"
     inkscape:window-x="0"
     inkscape:window-y="25"
     inkscape:window-maximized="1"
     inkscape:current-layer="g48" />
  <defs
     id="defs8">
    <clipPath
       id="__lottie_element_2">
      <rect
         width="222"
         height="76"
         x="0"
         y="0"
         id="rect2" />
    </clipPath>
    <clipPath
       id="__lottie_element_4">
      <path
         d="M 0,0 H 346 V 216 H 0 Z"
         id="path5" />
    </clipPath>
  </defs>
  <g
     id="g48">
    <g
       style="display:block"
       transform="translate(32.935001,38)"
       opacity="1"
       id="g20">
      <g
         opacity="1"
         id="g18">
        <path
           fill="#ffffff"
           fill-opacity="1"
           d="m 0,-38 c -18.156,0 -32.935001,14.778999 -32.935001,32.9390001 C -32.935001,11.877 -20.084,25.868999 -3.619,27.671 c 0,0 0,6.710001 0,6.710001 0,0.576999 0.139,1.145999 0.4029999,1.659 0.2650001,0.513 0.648,0.953998 1.1180001,1.288998 0.47,0.335002 1.014,0.552002 1.58499999,0.634002 C 0.058,38.044998 0.64099997,37.988998 1.186,37.799999 1.5089999,37.688 9.1929998,34.978001 16.931,28.423 27.327,19.615999 32.855,8.0430002 32.935001,-5.0669999 32.935001,-23.222 18.16,-38 0,-38 Z"
           id="path16" />
      </g>
    </g>
    <g
       style="display:block"
       transform="matrix(0.19,0,0,0.19,0.13000107,16.98)"
       opacity="1"
       clip-path=""
       id="g46">
      <g
         style="display:block"
         transform="matrix(0.49999771,0,0,0.49999771,173.00032,112.11765)"
         opacity="1"
         id="g26">
        <g
           opacity="1"
           id="g24">
          <path
             fill="#018dff"
             fill-opacity="1"
             d="M -199.532,-47.344002 C -199.532,61.639999 -109.824,150.383 0.45199999,150.383 110.727,150.383 200.467,61.639999 200.467,-47.344002 c 0,0 -72.02199,0 -72.02199,0 C 128.44501,21.954 71.026001,78.329002 0.45199999,78.329002 -70.123001,78.329002 -127.541,21.954 -127.541,-47.344002 c 0,0 -71.991,0 -71.991,0 z"
             id="path22" />
        </g>
      </g>
      <g
         style="display:block"
         transform="matrix(0.49999821,0,0,0.49999821,173.00015,112.11704)"
         opacity="1"
         id="g32">
        <g
           opacity="1"
           id="g30">
          <path
             fill="#018dff"
             fill-opacity="1"
             d="M 26.367001,-199.508 C 18.726,-204.73599 9.71,-207.588 0.45199999,-207.70399 -12.072,-207.771 -24.111,-202.86501 -33.022999,-194.065 c -8.910999,8.80099 -13.967003,20.77701 -14.057003,33.30099 0,9.25901 2.739002,18.31002 7.871002,26.01601 5.132,7.706 12.428999,13.723 20.972,17.292 8.5429998,3.57 17.95,4.533 27.039,2.769 9.089001,-1.763 17.454001,-6.176 24.042002,-12.681 6.586998,-6.50599 11.104,-14.815 12.980999,-23.88099 1.877998,-9.06601 1.031997,-18.485 -2.430001,-27.07201 -3.462001,-8.587 -9.386001,-15.95801 -17.027999,-21.187 z"
             id="path28" />
        </g>
      </g>
      <g
         style="display:block"
         transform="matrix(0.49999821,0,0,0.49999821,173.00041,112.11755)"
         opacity="1"
         id="g38">
        <g
           opacity="1"
           id="g36">
          <path
             fill="#018dff"
             fill-opacity="1"
             d="m -126.853,-199.47 c -7.63099,-5.23799 -16.64,-8.10201 -25.89399,-8.23399 -12.53801,-0.087 -24.597,4.80899 -33.52501,13.61099 -8.928,8.80301 -13.995,20.791 -14.08499,33.32899 9.9e-4,9.25501 2.73699,18.304 7.86599,26.00801 5.129,7.704 12.42099,13.72 20.95999,17.292 8.53801,3.572 17.94201,4.539 27.028,2.782 9.08701,-1.758 17.45201,-6.162 24.04201,-12.66 6.591,-6.498 11.114,-14.8 13,-23.861 1.886,-9.06101 1.051,-18.47699 -2.399,-27.06501 -3.451,-8.58799 -9.363,-15.96499 -16.993,-21.20199 z"
             id="path34" />
        </g>
      </g>
      <g
         style="display:block"
         transform="matrix(0.49999821,0,0,0.49999821,173.00029,112.11734)"
         opacity="1"
         id="g44">
        <g
           opacity="1"
           id="g42">
          <path
             fill="#018dff"
             fill-opacity="1"
             d="m 127.755,-122.043 c 7.631,5.238 16.641,8.103 25.896,8.235 12.53101,0.092 24.58499,-4.828 33.513,-13.622 8.928,-8.79301 13.998,-20.772 14.097,-33.303 0.002,-9.256 -2.73199,-18.306 -7.85901,-26.012 -5.127,-7.706 -12.418,-13.72399 -20.95599,-17.29901 -8.538,-3.57399 -17.94299,-4.54399 -27.03,-2.78799 -9.088,1.756 -17.454,6.16 -24.046,12.657 -6.592,6.49701 -11.117,14.798 -13.004,23.86 -1.887,9.061 -1.054,18.479 2.396,27.067 3.45,8.589 9.362,15.967 16.993,21.205 z"
             id="path40" />
        </g>
      </g>
    </g>
  </g>
</svg>
